<svg width="67" height="67" viewBox="0 0 67 67" fill="none" xmlns="http://www.w3.org/2000/svg">
<path d="M31.4062 56.5312C31.4062 57.0865 31.1857 57.6191 30.793 58.0118C30.4004 58.4044 29.8678 58.625 29.3125 58.625H12.5625C12.0072 58.625 11.4746 58.4044 11.082 58.0118C10.6893 57.6191 10.4688 57.0865 10.4688 56.5312V10.4688C10.4688 9.91345 10.6893 9.3809 11.082 8.98825C11.4746 8.59559 12.0072 8.375 12.5625 8.375H29.3125C29.8678 8.375 30.4004 8.59559 30.793 8.98825C31.1857 9.3809 31.4062 9.91345 31.4062 10.4688C31.4062 11.024 31.1857 11.5566 30.793 11.9493C30.4004 12.3419 29.8678 12.5625 29.3125 12.5625H14.6562V54.4375H29.3125C29.8678 54.4375 30.4004 54.6581 30.793 55.0507C31.1857 55.4434 31.4062 55.976 31.4062 56.5312ZM60.1063 32.0187L49.6376 21.5499C49.2447 21.157 48.7119 20.9363 48.1562 20.9363C47.6006 20.9363 47.0678 21.157 46.6749 21.5499C46.282 21.9428 46.0613 22.4756 46.0613 23.0312C46.0613 23.5869 46.282 24.1197 46.6749 24.5126L53.5712 31.4062H29.3125C28.7572 31.4062 28.2246 31.6268 27.832 32.0195C27.4393 32.4121 27.2188 32.9447 27.2188 33.5C27.2188 34.0553 27.4393 34.5879 27.832 34.9805C28.2246 35.3732 28.7572 35.5938 29.3125 35.5938H53.5712L46.6749 42.4874C46.282 42.8803 46.0613 43.4131 46.0613 43.9688C46.0613 44.5244 46.282 45.0572 46.6749 45.4501C47.0678 45.843 47.6006 46.0637 48.1562 46.0637C48.7119 46.0637 49.2447 45.843 49.6376 45.4501L60.1063 34.9813C60.301 34.7869 60.4554 34.556 60.5608 34.3018C60.6662 34.0476 60.7204 33.7752 60.7204 33.5C60.7204 33.2248 60.6662 32.9524 60.5608 32.6982C60.4554 32.444 60.301 32.2131 60.1063 32.0187Z" fill="white"/>
</svg>
