<svg width="53" height="29" viewBox="0 0 53 29" fill="none" xmlns="http://www.w3.org/2000/svg">
<path d="M52.294 4.12734L28.2043 28.2913C27.9806 28.516 27.7149 28.6942 27.4225 28.8158C27.13 28.9374 26.8166 29 26.5 29C26.1834 29 25.87 28.9374 25.5775 28.8158C25.2851 28.6942 25.0194 28.516 24.7957 28.2913L0.705963 4.12734C0.253942 3.67393 0 3.05896 0 2.41774C0 1.77652 0.253942 1.16155 0.705963 0.708138C1.15798 0.254724 1.77105 0 2.41031 0C3.04956 0 3.66263 0.254724 4.11465 0.708138L26.5 23.1655L48.8853 0.708138C49.1092 0.48363 49.3749 0.305541 49.6673 0.184038C49.9597 0.0625356 50.2732 0 50.5897 0C50.9062 0 51.2196 0.0625356 51.5121 0.184038C51.8045 0.305541 52.0702 0.48363 52.294 0.708138C52.5179 0.932646 52.6954 1.19918 52.8165 1.49251C52.9377 1.78584 53 2.10024 53 2.41774C53 2.73524 52.9377 3.04964 52.8165 3.34297C52.6954 3.6363 52.5179 3.90283 52.294 4.12734Z" fill="black"/>
</svg>
