<svg width="42" height="42" viewBox="0 0 42 42" fill="none" xmlns="http://www.w3.org/2000/svg">
<path d="M38.5872 29.5835H37.3009V9.30918L38.8557 8.97475C39.0244 8.94311 39.1851 8.878 39.3283 8.78327C39.4715 8.68854 39.5943 8.5661 39.6894 8.42317C39.7845 8.28025 39.85 8.11972 39.8821 7.95107C39.9142 7.78241 39.9123 7.60904 39.8763 7.44116C39.8403 7.27329 39.7711 7.11431 39.6728 6.9736C39.5744 6.83289 39.4489 6.71329 39.3036 6.62187C39.1582 6.53044 38.9961 6.46903 38.8267 6.44126C38.6572 6.41348 38.484 6.41991 38.3171 6.46016L2.30237 14.1776C1.9921 14.2445 1.71755 14.4239 1.53152 14.681C1.34548 14.9382 1.26111 15.2551 1.29463 15.5707C1.32815 15.8864 1.47719 16.1784 1.71309 16.3908C1.94898 16.6032 2.25507 16.7208 2.57248 16.7211C2.66381 16.721 2.75488 16.7113 2.8442 16.6922L3.85872 16.4751V29.5835H2.57248C2.23135 29.5835 1.90419 29.719 1.66297 29.9603C1.42175 30.2015 1.28624 30.5286 1.28624 30.8698C1.28624 31.2109 1.42175 31.5381 1.66297 31.7793C1.90419 32.0205 2.23135 32.156 2.57248 32.156H38.5872C38.9283 32.156 39.2555 32.0205 39.4967 31.7793C39.7379 31.5381 39.8734 31.2109 39.8734 30.8698C39.8734 30.5286 39.7379 30.2015 39.4967 29.9603C39.2555 29.719 38.9283 29.5835 38.5872 29.5835ZM6.4312 15.9172L34.7285 9.86065V29.5835H30.8697V20.5798C30.8697 20.2387 30.7342 19.9116 30.493 19.6703C30.2518 19.4291 29.9246 19.2936 29.5835 19.2936H11.5762C11.235 19.2936 10.9079 19.4291 10.6666 19.6703C10.4254 19.9116 10.2899 20.2387 10.2899 20.5798V29.5835H6.4312V15.9172ZM28.2973 24.4386H12.8624V21.8661H28.2973V24.4386ZM12.8624 27.011H28.2973V29.5835H12.8624V27.011Z" fill="white"/>
</svg>
