<svg width="39" height="35" viewBox="0 0 39 35" fill="none" xmlns="http://www.w3.org/2000/svg">
<path d="M38.6599 6.9458C38.5243 6.80021 38.3547 6.6831 38.1632 6.60275C37.9717 6.5224 37.7628 6.48077 37.5514 6.48081H8.4274L7.32974 1.06447C7.26928 0.765817 7.09394 0.495677 6.8343 0.301148C6.57465 0.10662 6.24716 4.38705e-05 5.90893 0H1.44428C1.06124 0 0.693877 0.136559 0.423021 0.379637C0.152165 0.622714 0 0.952398 0 1.29616C0 1.63992 0.152165 1.96961 0.423021 2.21269C0.693877 2.45576 1.06124 2.59232 1.44428 2.59232H4.69392L9.30841 25.3221C9.44434 25.9962 9.77629 26.6261 10.2707 27.1481C9.58833 27.7201 9.09583 28.4504 8.84779 29.2583C8.59975 30.0661 8.60585 30.9198 8.86543 31.7247C9.12501 32.5296 9.62791 33.2542 10.3184 33.8183C11.0088 34.3823 11.8599 34.7637 12.7771 34.9202C13.6944 35.0767 14.642 35.0021 15.515 34.7048C16.3879 34.4074 17.152 33.8989 17.7225 33.2356C18.2931 32.5724 18.6478 31.7802 18.7473 30.9471C18.8469 30.1139 18.6873 29.2723 18.2864 28.5155H26.4864C26.1632 29.1226 25.9961 29.787 25.9971 30.4598C25.9971 31.357 26.2936 32.2341 26.849 32.9802C27.4045 33.7262 28.194 34.3077 29.1176 34.651C30.0413 34.9944 31.0577 35.0842 32.0383 34.9092C33.0189 34.7341 33.9196 34.3021 34.6265 33.6676C35.3335 33.0332 35.8149 32.2248 36.01 31.3448C36.205 30.4648 36.1049 29.5527 35.7223 28.7237C35.3397 27.8948 34.6918 27.1863 33.8605 26.6878C33.0292 26.1893 32.0519 25.9232 31.0521 25.9232H13.5709C13.2326 25.9232 12.9051 25.8166 12.6455 25.6221C12.3858 25.4275 12.2105 25.1574 12.15 24.8588L11.5777 22.0347H32.5199C33.5346 22.0346 34.517 21.7149 35.296 21.1313C36.0749 20.5477 36.6009 19.7373 36.7823 18.8413L38.9776 8.00866C39.0148 7.82143 39.0056 7.62915 38.9507 7.44547C38.8958 7.26178 38.7965 7.0912 38.6599 6.9458ZM15.8871 30.4598C15.8871 30.8443 15.7601 31.2202 15.522 31.54C15.284 31.8597 14.9456 32.1089 14.5498 32.256C14.1539 32.4032 13.7183 32.4417 13.298 32.3667C12.8778 32.2917 12.4918 32.1065 12.1888 31.8346C11.8858 31.5627 11.6795 31.2162 11.5959 30.8391C11.5123 30.4619 11.5552 30.071 11.7192 29.7158C11.8832 29.3605 12.1608 29.0568 12.5171 28.8432C12.8734 28.6296 13.2922 28.5155 13.7207 28.5155C14.2953 28.5155 14.8463 28.7204 15.2526 29.085C15.6589 29.4496 15.8871 29.9441 15.8871 30.4598ZM33.2185 30.4598C33.2185 30.8443 33.0915 31.2202 32.8534 31.54C32.6154 31.8597 32.277 32.1089 31.8812 32.256C31.4853 32.4032 31.0497 32.4417 30.6295 32.3667C30.2092 32.2917 29.8232 32.1065 29.5202 31.8346C29.2172 31.5627 29.0109 31.2162 28.9273 30.8391C28.8437 30.4619 28.8866 30.071 29.0506 29.7158C29.2146 29.3605 29.4922 29.0568 29.8485 28.8432C30.2048 28.6296 30.6236 28.5155 31.0521 28.5155C31.6267 28.5155 32.1777 28.7204 32.584 29.085C32.9903 29.4496 33.2185 29.9441 33.2185 30.4598ZM33.9407 18.3779C33.8801 18.6774 33.7039 18.9482 33.4432 19.1428C33.1824 19.3375 32.8536 19.4435 32.5144 19.4424H11.0524L8.95275 9.07313H35.8201L33.9407 18.3779Z" fill="white"/>
</svg>
