<svg width="43" height="43" viewBox="0 0 43 43" fill="none" xmlns="http://www.w3.org/2000/svg">
<path d="M38.2335 7.9104H26.3679C25.3445 7.9104 24.3352 8.14867 23.4199 8.60633C22.5045 9.064 21.7083 9.72849 21.0943 10.5472C20.4803 9.72849 19.6841 9.064 18.7688 8.60633C17.8534 8.14867 16.8441 7.9104 15.8207 7.9104H3.95518C3.60552 7.9104 3.27018 8.0493 3.02294 8.29655C2.77569 8.5438 2.63679 8.87914 2.63679 9.2288V32.9599C2.63679 33.3096 2.77569 33.6449 3.02294 33.8922C3.27018 34.1394 3.60552 34.2783 3.95518 34.2783H15.8207C16.8697 34.2783 17.8757 34.695 18.6175 35.4368C19.3592 36.1785 19.7759 37.1845 19.7759 38.2335C19.7759 38.5832 19.9148 38.9185 20.1621 39.1657C20.4093 39.413 20.7447 39.5519 21.0943 39.5519C21.444 39.5519 21.7793 39.413 22.0266 39.1657C22.2738 38.9185 22.4127 38.5832 22.4127 38.2335C22.4127 37.1845 22.8294 36.1785 23.5712 35.4368C24.3129 34.695 25.3189 34.2783 26.3679 34.2783H38.2335C38.5831 34.2783 38.9185 34.1394 39.1657 33.8922C39.413 33.6449 39.5519 33.3096 39.5519 32.9599V9.2288C39.5519 8.87914 39.413 8.5438 39.1657 8.29655C38.9185 8.0493 38.5831 7.9104 38.2335 7.9104ZM15.8207 31.6415H5.27358V10.5472H15.8207C16.8697 10.5472 17.8757 10.9639 18.6175 11.7056C19.3592 12.4474 19.7759 13.4534 19.7759 14.5024V32.9599C18.6359 32.1021 17.2474 31.6392 15.8207 31.6415ZM36.9151 31.6415H26.3679C24.9412 31.6392 23.5527 32.1021 22.4127 32.9599V14.5024C22.4127 13.4534 22.8294 12.4474 23.5712 11.7056C24.3129 10.9639 25.3189 10.5472 26.3679 10.5472H36.9151V31.6415ZM26.3679 14.5024H32.9599C33.3095 14.5024 33.6449 14.6413 33.8921 14.8885C34.1394 15.1358 34.2783 15.4711 34.2783 15.8208C34.2783 16.1704 34.1394 16.5058 33.8921 16.753C33.6449 17.0003 33.3095 17.1392 32.9599 17.1392H26.3679C26.0182 17.1392 25.6829 17.0003 25.4357 16.753C25.1884 16.5058 25.0495 16.1704 25.0495 15.8208C25.0495 15.4711 25.1884 15.1358 25.4357 14.8885C25.6829 14.6413 26.0182 14.5024 26.3679 14.5024ZM34.2783 21.0944C34.2783 21.444 34.1394 21.7794 33.8921 22.0266C33.6449 22.2738 33.3095 22.4127 32.9599 22.4127H26.3679C26.0182 22.4127 25.6829 22.2738 25.4357 22.0266C25.1884 21.7794 25.0495 21.444 25.0495 21.0944C25.0495 20.7447 25.1884 20.4094 25.4357 20.1621C25.6829 19.9149 26.0182 19.776 26.3679 19.776H32.9599C33.3095 19.776 33.6449 19.9149 33.8921 20.1621C34.1394 20.4094 34.2783 20.7447 34.2783 21.0944ZM34.2783 26.3679C34.2783 26.7176 34.1394 27.0529 33.8921 27.3002C33.6449 27.5474 33.3095 27.6863 32.9599 27.6863H26.3679C26.0182 27.6863 25.6829 27.5474 25.4357 27.3002C25.1884 27.0529 25.0495 26.7176 25.0495 26.3679C25.0495 26.0183 25.1884 25.6829 25.4357 25.4357C25.6829 25.1884 26.0182 25.0495 26.3679 25.0495H32.9599C33.3095 25.0495 33.6449 25.1884 33.8921 25.4357C34.1394 25.6829 34.2783 26.0183 34.2783 26.3679Z" fill="white"/>
</svg>
