<svg width="33" height="34" viewBox="0 0 33 34" fill="none" xmlns="http://www.w3.org/2000/svg">
<path d="M32.5612 9.53635L22.0613 0.3825C21.9218 0.261102 21.7564 0.164837 21.5743 0.0992066C21.3922 0.0335761 21.197 -0.000134674 21 4.04336e-07H3C2.20435 4.04336e-07 1.44129 0.275549 0.87868 0.766029C0.31607 1.25651 0 1.92174 0 2.61538V31.3846C0 32.0783 0.31607 32.7435 0.87868 33.234C1.44129 33.7244 2.20435 34 3 34H30C30.7956 34 31.5587 33.7244 32.1213 33.234C32.6839 32.7435 33 32.0783 33 31.3846V10.4615C33.0002 10.2898 32.9615 10.1196 32.8862 9.96089C32.8109 9.80214 32.7005 9.65788 32.5612 9.53635ZM22.5 4.46414L27.8794 9.15385H22.5V4.46414ZM30 31.3846H3V2.61538H19.5V10.4615C19.5 10.8084 19.658 11.141 19.9393 11.3862C20.2206 11.6315 20.6022 11.7692 21 11.7692H30V31.3846Z" fill="white"/>
</svg>
