<svg width="44" height="44" viewBox="0 0 44 44" fill="none" xmlns="http://www.w3.org/2000/svg">
<path d="M38.8197 17.6722C38.1717 16.995 37.5014 16.2972 37.2487 15.6836C37.015 15.1216 37.0013 14.19 36.9875 13.2877C36.9617 11.6102 36.9342 9.70922 35.6125 8.3875C34.2908 7.06578 32.3898 7.03828 30.7123 7.0125C29.81 6.99875 28.8784 6.985 28.3164 6.75125C27.7045 6.49859 27.005 5.82828 26.3278 5.18031C25.1419 4.04078 23.7944 2.75 22 2.75C20.2056 2.75 18.8598 4.04078 17.6722 5.18031C16.995 5.82828 16.2972 6.49859 15.6836 6.75125C15.125 6.985 14.19 6.99875 13.2877 7.0125C11.6102 7.03828 9.70922 7.06578 8.3875 8.3875C7.06578 9.70922 7.04688 11.6102 7.0125 13.2877C6.99875 14.19 6.985 15.1216 6.75125 15.6836C6.49859 16.2955 5.82828 16.995 5.18031 17.6722C4.04078 18.8598 2.75 20.2056 2.75 22C2.75 23.7944 4.04078 25.1402 5.18031 26.3278C5.82828 27.005 6.49859 27.7028 6.75125 28.3164C6.985 28.8784 6.99875 29.81 7.0125 30.7123C7.03828 32.3898 7.06578 34.2908 8.3875 35.6125C9.70922 36.9342 11.6102 36.9617 13.2877 36.9875C14.19 37.0013 15.1216 37.015 15.6836 37.2487C16.2955 37.5014 16.995 38.1717 17.6722 38.8197C18.8581 39.9592 20.2056 41.25 22 41.25C23.7944 41.25 25.1402 39.9592 26.3278 38.8197C27.005 38.1717 27.7028 37.5014 28.3164 37.2487C28.8784 37.015 29.81 37.0013 30.7123 36.9875C32.3898 36.9617 34.2908 36.9342 35.6125 35.6125C36.9342 34.2908 36.9617 32.3898 36.9875 30.7123C37.0013 29.81 37.015 28.8784 37.2487 28.3164C37.5014 27.7045 38.1717 27.005 38.8197 26.3278C39.9592 25.1402 41.25 23.7944 41.25 22C41.25 20.2056 39.9592 18.8598 38.8197 17.6722ZM36.8345 24.4252C36.0112 25.2845 35.1587 26.1731 34.7067 27.2645C34.2736 28.313 34.2547 29.5109 34.2375 30.6711C34.2203 31.8742 34.2014 33.1341 33.6669 33.6669C33.1323 34.1997 31.8811 34.2203 30.6711 34.2375C29.5109 34.2547 28.313 34.2736 27.2645 34.7067C26.1731 35.1587 25.2845 36.0112 24.4252 36.8345C23.5658 37.6578 22.6875 38.5 22 38.5C21.3125 38.5 20.4273 37.6544 19.5748 36.8345C18.7223 36.0147 17.8269 35.1587 16.7355 34.7067C15.687 34.2736 14.4891 34.2547 13.3289 34.2375C12.1258 34.2203 10.8659 34.2014 10.3331 33.6669C9.80031 33.1323 9.77969 31.8811 9.7625 30.6711C9.74531 29.5109 9.72641 28.313 9.29328 27.2645C8.84125 26.1731 7.98875 25.2845 7.16547 24.4252C6.34219 23.5658 5.5 22.6875 5.5 22C5.5 21.3125 6.34562 20.4291 7.16547 19.5748C7.98531 18.7206 8.84125 17.8269 9.29328 16.7355C9.72641 15.687 9.74531 14.4891 9.7625 13.3289C9.77969 12.1258 9.79859 10.8659 10.3331 10.3331C10.8677 9.80031 12.1189 9.77969 13.3289 9.7625C14.4891 9.74531 15.687 9.72641 16.7355 9.29328C17.8269 8.84125 18.7155 7.98875 19.5748 7.16547C20.4342 6.34219 21.3125 5.5 22 5.5C22.6875 5.5 23.5727 6.34562 24.4252 7.16547C25.2777 7.98531 26.1731 8.84125 27.2645 9.29328C28.313 9.72641 29.5109 9.74531 30.6711 9.7625C31.8742 9.77969 33.1341 9.79859 33.6669 10.3331C34.1997 10.8677 34.2203 12.1189 34.2375 13.3289C34.2547 14.4891 34.2736 15.687 34.7067 16.7355C35.1587 17.8269 36.0112 18.7155 36.8345 19.5748C37.6578 20.4342 38.5 21.3125 38.5 22C38.5 22.6875 37.6544 23.5709 36.8345 24.4252ZM20.625 16.5C20.625 15.6842 20.3831 14.8866 19.9298 14.2083C19.4766 13.5299 18.8323 13.0012 18.0786 12.689C17.3248 12.3768 16.4954 12.2951 15.6953 12.4543C14.8951 12.6134 14.1601 13.0063 13.5832 13.5832C13.0063 14.1601 12.6134 14.8951 12.4543 15.6953C12.2951 16.4954 12.3768 17.3248 12.689 18.0786C13.0012 18.8323 13.5299 19.4766 14.2083 19.9298C14.8866 20.3831 15.6842 20.625 16.5 20.625C17.594 20.625 18.6432 20.1904 19.4168 19.4168C20.1904 18.6432 20.625 17.594 20.625 16.5ZM15.125 16.5C15.125 16.2281 15.2056 15.9622 15.3567 15.7361C15.5078 15.51 15.7226 15.3337 15.9738 15.2297C16.2251 15.1256 16.5015 15.0984 16.7682 15.1514C17.035 15.2045 17.28 15.3354 17.4723 15.5277C17.6646 15.72 17.7955 15.965 17.8486 16.2318C17.9016 16.4985 17.8744 16.7749 17.7703 17.0262C17.6663 17.2774 17.49 17.4922 17.2639 17.6433C17.0378 17.7944 16.7719 17.875 16.5 17.875C16.1353 17.875 15.7856 17.7301 15.5277 17.4723C15.2699 17.2144 15.125 16.8647 15.125 16.5ZM27.5 23.375C26.6842 23.375 25.8866 23.6169 25.2083 24.0702C24.5299 24.5234 24.0012 25.1677 23.689 25.9214C23.3768 26.6752 23.2951 27.5046 23.4543 28.3047C23.6134 29.1049 24.0063 29.8399 24.5832 30.4168C25.1601 30.9937 25.8951 31.3866 26.6953 31.5457C27.4954 31.7049 28.3248 31.6232 29.0786 31.311C29.8323 30.9988 30.4766 30.4701 30.9298 29.7917C31.3831 29.1134 31.625 28.3158 31.625 27.5C31.625 26.406 31.1904 25.3568 30.4168 24.5832C29.6432 23.8096 28.594 23.375 27.5 23.375ZM27.5 28.875C27.2281 28.875 26.9622 28.7944 26.7361 28.6433C26.51 28.4922 26.3337 28.2774 26.2297 28.0262C26.1256 27.7749 26.0984 27.4985 26.1514 27.2318C26.2045 26.965 26.3354 26.72 26.5277 26.5277C26.72 26.3354 26.965 26.2045 27.2318 26.1514C27.4985 26.0984 27.7749 26.1256 28.0262 26.2297C28.2774 26.3337 28.4922 26.51 28.6433 26.7361C28.7944 26.9622 28.875 27.2281 28.875 27.5C28.875 27.8647 28.7301 28.2144 28.4723 28.4723C28.2144 28.7301 27.8647 28.875 27.5 28.875ZM29.8478 16.0978L16.0978 29.8478C15.9701 29.9756 15.8184 30.0769 15.6515 30.146C15.4846 30.2152 15.3057 30.2508 15.125 30.2508C14.9443 30.2508 14.7654 30.2152 14.5985 30.146C14.4316 30.0769 14.2799 29.9756 14.1522 29.8478C14.0244 29.7201 13.9231 29.5684 13.854 29.4015C13.7848 29.2346 13.7492 29.0557 13.7492 28.875C13.7492 28.6943 13.7848 28.5154 13.854 28.3485C13.9231 28.1816 14.0244 28.0299 14.1522 27.9022L27.9022 14.1522C28.0299 14.0244 28.1816 13.9231 28.3485 13.854C28.5154 13.7848 28.6943 13.7492 28.875 13.7492C29.0557 13.7492 29.2346 13.7848 29.4015 13.854C29.5684 13.9231 29.7201 14.0244 29.8478 14.1522C29.9756 14.2799 30.0769 14.4316 30.146 14.5985C30.2152 14.7654 30.2508 14.9443 30.2508 15.125C30.2508 15.3057 30.2152 15.4846 30.146 15.6515C30.0769 15.8184 29.9756 15.9701 29.8478 16.0978Z" fill="white"/>
</svg>
