<svg width="41" height="40" viewBox="0 0 41 40" fill="none" xmlns="http://www.w3.org/2000/svg">
<path d="M35.875 31.25H34.5938V6.25C34.5938 5.91848 34.4588 5.60054 34.2185 5.36612C33.9782 5.1317 33.6523 5 33.3125 5H24.3438C24.0039 5 23.678 5.1317 23.4378 5.36612C23.1975 5.60054 23.0625 5.91848 23.0625 6.25V12.5H15.375C15.0352 12.5 14.7093 12.6317 14.469 12.8661C14.2287 13.1005 14.0938 13.4185 14.0938 13.75V20H7.6875C7.34769 20 7.0218 20.1317 6.78152 20.3661C6.54124 20.6005 6.40625 20.9185 6.40625 21.25V31.25H5.125C4.78519 31.25 4.4593 31.3817 4.21902 31.6161C3.97874 31.8505 3.84375 32.1685 3.84375 32.5C3.84375 32.8315 3.97874 33.1495 4.21902 33.3839C4.4593 33.6183 4.78519 33.75 5.125 33.75H35.875C36.2148 33.75 36.5407 33.6183 36.781 33.3839C37.0213 33.1495 37.1562 32.8315 37.1562 32.5C37.1562 32.1685 37.0213 31.8505 36.781 31.6161C36.5407 31.3817 36.2148 31.25 35.875 31.25ZM25.625 7.5H32.0312V31.25H25.625V7.5ZM16.6562 15H23.0625V31.25H16.6562V15ZM8.96875 22.5H14.0938V31.25H8.96875V22.5Z" fill="white"/>
</svg>
