<svg width="38" height="31" viewBox="0 0 38 31" fill="none" xmlns="http://www.w3.org/2000/svg">
<path d="M14.9228 11.5312C14.9228 11.1914 15.0657 10.8656 15.3201 10.6253C15.5746 10.385 15.9196 10.25 16.2794 10.25H27.1324C27.4922 10.25 27.8372 10.385 28.0916 10.6253C28.346 10.8656 28.489 11.1914 28.489 11.5312C28.489 11.8711 28.346 12.1969 28.0916 12.4372C27.8372 12.6775 27.4922 12.8125 27.1324 12.8125H16.2794C15.9196 12.8125 15.5746 12.6775 15.3201 12.4372C15.0657 12.1969 14.9228 11.8711 14.9228 11.5312ZM16.2794 17.9375H27.1324C27.4922 17.9375 27.8372 17.8025 28.0916 17.5622C28.346 17.322 28.489 16.9961 28.489 16.6562C28.489 16.3164 28.346 15.9905 28.0916 15.7503C27.8372 15.51 27.4922 15.375 27.1324 15.375H16.2794C15.9196 15.375 15.5746 15.51 15.3201 15.7503C15.0657 15.9905 14.9228 16.3164 14.9228 16.6562C14.9228 16.9961 15.0657 17.322 15.3201 17.5622C15.5746 17.8025 15.9196 17.9375 16.2794 17.9375ZM37.9853 25.625C37.9853 26.9842 37.4136 28.2878 36.3959 29.2489C35.3783 30.21 33.998 30.75 32.5588 30.75H13.5662C12.127 30.75 10.7467 30.21 9.72908 29.2489C8.71142 28.2878 8.13971 26.9842 8.13971 25.625V5.125C8.13971 4.44538 7.85385 3.7936 7.34502 3.31304C6.83619 2.83248 6.14607 2.5625 5.42647 2.5625C4.70688 2.5625 4.01675 2.83248 3.50792 3.31304C2.99909 3.7936 2.71324 4.44538 2.71324 5.125C2.71324 6.0443 3.53229 6.6657 3.54077 6.67211C3.76529 6.83529 3.93009 7.06077 4.01204 7.3169C4.09398 7.57303 4.08897 7.84697 3.9977 8.10027C3.90643 8.35357 3.73348 8.57354 3.50312 8.72929C3.27276 8.88505 2.99654 8.96878 2.71324 8.96875C2.41987 8.96923 2.13446 8.87863 1.90096 8.7109C1.70425 8.57477 0 7.30473 0 5.125C0 3.76577 0.571716 2.4622 1.58938 1.50108C2.60704 0.539954 3.98728 0 5.42647 0H28.489C29.9282 0 31.3084 0.539954 32.3261 1.50108C33.3437 2.4622 33.9154 3.76577 33.9154 5.125V21.7812H35.2721C35.5656 21.7812 35.8512 21.8712 36.086 22.0375C36.2895 22.1752 37.9853 23.4453 37.9853 25.625ZM14.9669 22.6589C15.0596 22.4005 15.2365 22.1764 15.4722 22.0188C15.708 21.8611 15.9906 21.778 16.2794 21.7812H31.2022V5.125C31.2022 4.44538 30.9163 3.7936 30.4075 3.31304C29.8987 2.83248 29.2086 2.5625 28.489 2.5625H10.1221C10.6019 3.34039 10.8541 4.22475 10.8529 5.125V25.625C10.8529 26.3046 11.1388 26.9564 11.6476 27.437C12.1565 27.9175 12.8466 28.1875 13.5662 28.1875C14.2858 28.1875 14.9759 27.9175 15.4847 27.437C15.9936 26.9564 16.2794 26.3046 16.2794 25.625C16.2794 24.7057 15.4604 24.0843 15.4519 24.0779C15.2207 23.9217 15.0487 23.6995 14.9614 23.444C14.8741 23.1885 14.876 22.9133 14.9669 22.6589ZM35.2721 25.625C35.2551 25.1503 35.0611 24.6965 34.7243 24.3438H18.7841C18.9204 24.7586 18.9896 25.1906 18.9893 25.625C18.9906 26.5248 18.7396 27.409 18.2618 28.1875H32.5588C33.2784 28.1875 33.9685 27.9175 34.4774 27.437C34.9862 26.9564 35.2721 26.3046 35.2721 25.625Z" fill="white"/>
</svg>
