<svg width="38" height="37" viewBox="0 0 38 37" fill="none" xmlns="http://www.w3.org/2000/svg">
<path d="M35.5765 8.28268L19.8977 0.327246C19.4788 0.112594 19.008 0 18.5294 0C18.0508 0 17.58 0.112594 17.1611 0.327246L1.48235 8.28598C1.0346 8.51317 0.660829 8.84767 0.400078 9.25456C0.139327 9.66144 0.00115855 10.1258 0 10.5991V26.4009C0.00115855 26.8742 0.139327 27.3386 0.400078 27.7454C0.660829 28.1523 1.0346 28.4868 1.48235 28.714L17.1611 36.6728C17.58 36.8874 18.0508 37 18.5294 37C19.008 37 19.4788 36.8874 19.8977 36.6728L35.5765 28.714C36.0242 28.4868 36.398 28.1523 36.6587 27.7454C36.9195 27.3386 37.0577 26.8742 37.0588 26.4009V10.6007C37.0586 10.1266 36.9209 9.66122 36.6601 9.25338C36.3993 8.84555 36.025 8.51027 35.5765 8.28268ZM18.5294 2.64035L32.8434 9.91012L27.5393 12.6032L13.2236 5.33347L18.5294 2.64035ZM18.5294 17.1799L4.21544 9.91012L10.2553 6.8436L24.5693 14.1134L18.5294 17.1799ZM2.85068 12.2232L17.1041 19.4566V33.631L2.85068 26.4026V12.2232ZM34.2081 26.396L19.9548 33.631V19.4632L25.6561 16.5702V22.467C25.6561 22.8175 25.8063 23.1537 26.0736 23.4016C26.3409 23.6495 26.7034 23.7888 27.0814 23.7888C27.4595 23.7888 27.822 23.6495 28.0893 23.4016C28.3566 23.1537 28.5068 22.8175 28.5068 22.467V15.1229L34.2081 12.2232V26.3943V26.396Z" fill="white"/>
</svg>
