<svg width="46" height="46" viewBox="0 0 46 46" fill="none" xmlns="http://www.w3.org/2000/svg">
<path d="M40.84 37.4938C38.1465 32.8372 33.9956 29.4981 29.1515 27.9152C31.5476 26.4888 33.4093 24.3152 34.4505 21.7284C35.4918 19.1415 35.6551 16.2843 34.9154 13.5957C34.1757 10.907 32.5738 8.53547 30.3558 6.8453C28.1379 5.15512 25.4264 4.23975 22.6378 4.23975C19.8492 4.23975 17.1378 5.15512 14.9198 6.8453C12.7018 8.53547 11.0999 10.907 10.3602 13.5957C9.62051 16.2843 9.78383 19.1415 10.8251 21.7284C11.8664 24.3152 13.728 26.4888 16.1241 27.9152C11.28 29.4963 7.12914 32.8354 4.43559 37.4938C4.33682 37.6549 4.2713 37.8341 4.24291 38.0209C4.21451 38.2077 4.22382 38.3983 4.27027 38.5814C4.31673 38.7646 4.3994 38.9365 4.5134 39.0872C4.6274 39.2379 4.77042 39.3642 4.93402 39.4587C5.09763 39.5532 5.27851 39.614 5.46598 39.6374C5.65346 39.6609 5.84373 39.6466 6.02558 39.5953C6.20744 39.5441 6.37718 39.4569 6.52479 39.339C6.67241 39.221 6.79491 39.0747 6.88508 38.9087C10.2171 33.1502 16.1064 29.7121 22.6378 29.7121C29.1692 29.7121 35.0585 33.1502 38.3905 38.9087C38.4807 39.0747 38.6032 39.221 38.7508 39.339C38.8984 39.4569 39.0682 39.5441 39.25 39.5953C39.4319 39.6466 39.6222 39.6609 39.8096 39.6374C39.9971 39.614 40.178 39.5532 40.3416 39.4587C40.5052 39.3642 40.6482 39.2379 40.7622 39.0872C40.8762 38.9365 40.9589 38.7646 41.0053 38.5814C41.0518 38.3983 41.0611 38.2077 41.0327 38.0209C41.0043 37.8341 40.9388 37.6549 40.84 37.4938ZM12.7338 16.9783C12.7338 15.0195 13.3146 13.1046 14.4029 11.4759C15.4912 9.84722 17.038 8.5778 18.8477 7.82818C20.6574 7.07857 22.6488 6.88244 24.57 7.26459C26.4912 7.64674 28.2559 8.59 29.641 9.97511C31.0261 11.3602 31.9694 13.1249 32.3516 15.0461C32.7337 16.9673 32.5376 18.9587 31.788 20.7684C31.0383 22.5782 29.7689 24.125 28.1402 25.2132C26.5115 26.3015 24.5966 26.8824 22.6378 26.8824C20.012 26.8796 17.4945 25.8352 15.6377 23.9784C13.7809 22.1217 12.7366 19.6042 12.7338 16.9783Z" fill="white"/>
</svg>
